<svg width="38" height="38" viewBox="0 0 38 38" fill="none" xmlns="http://www.w3.org/2000/svg">
<g clip-path="url(#clip0_39429_7)">
<path d="M32.7046 5.29592C29.2894 1.88061 24.7496 0 19.9192 0C19.9195 0 19.919 0 19.9192 0C17.5303 0.000284468 15.2005 0.462828 12.9984 1.37512C10.7961 2.2874 8.82302 3.60648 7.13358 5.29592C3.71854 8.71096 1.83793 13.2516 1.83793 18.0813C1.83793 20.9616 2.53288 23.8238 3.84968 26.3742L0.810429 35.0566C0.596225 35.669 0.747845 36.3348 1.20698 36.7936C1.52814 37.115 1.95086 37.2858 2.38552 37.2858C2.57186 37.2858 2.76016 37.2544 2.94394 37.1902L11.6265 34.1512C14.1767 35.468 17.039 36.163 19.9192 36.163C24.749 36.163 29.2894 34.282 32.7046 30.867C36.1196 27.452 38.0006 22.9112 38.0006 18.0816C38.0006 13.2516 36.12 8.71096 32.7046 5.29592ZM31.1582 29.3206C28.1562 32.3228 24.1646 33.976 19.9192 33.976C17.3221 33.976 14.7419 33.3336 12.4577 32.1178C12.0435 31.8976 11.5539 31.8598 11.1144 32.0136L3.22612 34.7744L5.98716 26.8862C6.14106 26.446 6.10294 25.9566 5.88276 25.5426C4.66724 23.259 4.02462 20.6788 4.02462 18.0813C4.02462 13.8359 5.67796 9.84428 8.67994 6.8423C11.6816 3.8406 15.6727 2.18726 19.9178 2.1867C24.1636 2.1867 28.1562 3.84002 31.1582 6.8423C34.1606 9.84428 35.8138 13.8356 35.8138 18.0813C35.8138 22.327 34.1606 26.3186 31.1582 29.3206Z" fill="white"/>
<path d="M26.6384 19.6964C25.8066 18.8646 24.4532 18.8646 23.6214 19.6964L22.7116 20.6062C20.4528 19.3752 18.6247 17.5473 17.3935 15.2883L18.3033 14.3786C19.1353 13.5468 19.1353 12.1933 18.3033 11.3615L15.8517 8.90997C15.0199 8.07819 13.6665 8.07819 12.8347 8.90997L10.8736 10.8711C9.75019 11.9944 9.69415 13.9257 10.7157 16.3092C11.6026 18.3787 13.2258 20.6534 15.2862 22.7138C17.3466 24.7742 19.6212 26.3974 21.6908 27.2842C22.8232 27.7696 23.8532 28.0116 24.7434 28.0116C25.7268 28.0116 26.5392 27.7162 27.1288 27.1264L29.09 25.165C29.493 24.762 29.715 24.2266 29.715 23.6568C29.715 23.0866 29.493 22.551 29.09 22.1482L26.6384 19.6964ZM25.5826 25.58C25.262 25.9006 24.276 26.013 22.5524 25.2746C20.7324 24.4946 18.701 23.0358 16.8326 21.1674C14.9642 19.299 13.5057 17.2679 12.7257 15.4479C11.987 13.7243 12.0993 12.738 12.4199 12.4175L14.3435 10.4939L16.7194 12.87L15.5806 14.009C15.0657 14.5239 14.9414 15.3048 15.2717 15.9522C16.7689 18.8879 19.112 21.2312 22.0478 22.7282C22.6954 23.0586 23.4764 22.9344 23.9912 22.4194L25.13 21.2806L27.506 23.6568L25.5826 25.58Z" fill="white"/>
</g>
<defs>
<clipPath id="clip0_39429_7">
<rect width="38" height="38" fill="white"/>
</clipPath>
</defs>
</svg>
