<svg width="37" height="54" viewBox="0 0 37 54" fill="none" xmlns="http://www.w3.org/2000/svg">
<path d="M18.6671 18.6683H10.3342M18.6671 18.6683V2H10.3342C8.12381 2 6.00398 2.87806 4.44102 4.44102C2.87806 6.00398 2 8.12381 2 10.3342C2 12.5445 2.87806 14.6644 4.44102 16.2273C6.00398 17.7903 8.12381 18.6683 10.3342 18.6683M18.6671 18.6683V35.3342H10.3342M18.6671 18.6683H27M10.3342 18.6683C8.12414 18.6683 6.00463 19.5463 4.4419 21.109C2.87918 22.6717 2.00125 24.7912 2.00125 27.0012C2.00125 29.2113 2.87918 31.3308 4.4419 32.8935C6.00463 34.4562 8.12414 35.3342 10.3342 35.3342M10.3342 35.3342C8.68618 35.3342 7.07519 35.8228 5.70491 36.7383C4.33462 37.6539 3.26657 38.9551 2.6358 40.4776C2.00502 42.0001 1.83986 43.6755 2.16118 45.2918C2.48251 46.9082 3.27589 48.393 4.44102 49.5585C5.60615 50.7239 7.0907 51.5178 8.70696 51.8396C10.3232 52.1614 11.9986 51.9967 13.5213 51.3664C15.044 50.7361 16.3456 49.6684 17.2615 48.2984C18.1775 46.9284 18.6666 45.3176 18.6671 43.6696M27 18.6683C24.79 18.6683 22.6705 19.5463 21.1077 21.109C19.545 22.6717 18.6671 24.7912 18.6671 27.0012C18.6671 29.2113 19.545 31.3308 21.1077 32.8935C22.6705 34.4562 24.79 35.3342 27 35.3342C29.21 35.3342 31.3295 34.4562 32.8923 32.8935C34.455 31.3308 35.3329 29.2113 35.3329 27.0012C35.3329 24.7912 34.455 22.6717 32.8923 21.109C31.3295 19.5463 29.21 18.6683 27 18.6683ZM27 18.6683C29.2104 18.6683 31.3302 17.7903 32.8931 16.2273C34.4561 14.6644 35.3342 12.5445 35.3342 10.3342C35.3342 8.12381 34.4561 6.00398 32.8931 4.44102C31.3302 2.87806 29.2104 2 27 2" stroke="#5C62EC" stroke-width="2.5" stroke-linecap="round" stroke-linejoin="round"/>
</svg>
