<svg width="42" height="72" viewBox="0 0 42 72" fill="none" xmlns="http://www.w3.org/2000/svg">
<path d="M32.4036 69.8267L33.2985 58.301L35.7695 55.0407C35.7695 55.0407 30.1456 56.8189 20.7302 56.8189C11.3147 56.8189 5.7761 55.0736 5.7761 55.0736L8.54534 58.6301L9.52498 69.8267C9.52498 71.027 14.6464 72 20.9644 72C27.282 72 32.4036 71.027 32.4036 69.8267ZM29.5808 16.0034L31.4591 10.2648L41.8608 1.80488L39.1193 0L28.107 9.0119L25.9261 15.868C24.2847 15.8255 22.6425 15.8044 21.0002 15.8047C9.40213 15.8047 0 16.8264 0 18.0864C0 19.3465 9.40213 20.3681 21.0002 20.3681C32.598 20.3681 42 19.3465 42 18.0864C42 17.1585 36.9008 16.3599 29.5808 16.0034Z" fill="#5C62EC"/>
<path d="M28.9251 18.9127C28.9251 18.9127 28.4399 18.9948 27.0126 18.9994C25.5849 19.0038 24.5712 18.9924 24.1674 18.715C24.0588 18.6405 23.9994 18.4926 24 18.3924C24.0012 18.2018 24.1806 18.0895 24.4091 18.0191L24.6253 18.2749C24.5312 18.2994 24.4775 18.3283 24.4774 18.3592C24.4766 18.504 25.9371 18.6031 27.0543 18.5924C28.1716 18.582 29.5217 18.5126 29.5228 18.3699C29.5228 18.3267 29.4208 18.286 29.2432 18.254L29.4583 18C29.7479 18.0678 30.0006 18.1988 30 18.4255C29.9972 18.8109 29.347 18.8695 28.9251 18.9127Z" fill="white"/>
<path d="M41.9191 1.91104C42.182 1.67805 41.783 1.08209 41.0278 0.580108C40.2723 0.0783849 39.4467 -0.139601 39.1833 0.0933921C38.9202 0.326385 39.3194 0.922348 40.0749 1.42407C40.83 1.92592 41.656 2.14416 41.9191 1.91104ZM31.9283 41.6777C31.6805 39.8483 37.1443 37.1989 35.7421 37.1141C32.7234 37.2465 31.2211 39.8278 29.7023 42.5314C29.1458 43.5223 27.2414 47.7474 25.9923 47.2273C24.7436 46.7074 27.6112 43.233 28.415 41.1696C27.4876 41.6913 24.0864 43.7184 23.2099 41.82C21.8007 42.7381 18.7896 43.2355 19.1293 40.8238C18.3796 41.8425 16.697 43.2647 14.6774 42.6737C12.0252 41.8978 16.2142 35.4166 17.2559 35.7436C18.2977 36.0705 17.0457 37.5469 16.7177 38.1202C15.9966 39.382 15.1635 40.9681 15.72 41.2928C16.6735 41.8491 19.268 39.1884 19.3257 39.1299C19.811 38.6381 21.1935 35.4206 22.3077 35.79C23.422 36.1595 19.5285 40.4077 20.9843 41.2507C21.2779 41.4209 22.4791 41.1458 23.2099 40.5393C23.6828 40.1469 23.5201 39.2779 25.0963 36.3945C26.6724 33.5112 28.0771 29.9204 29.158 30.194C30.2389 30.4674 29.348 32.3104 28.9602 32.9974C27.1406 36.2219 23.9939 41.5491 25.4779 41.1458C26.9618 40.7427 27.7346 40.719 29.1877 39.4145C30.6408 38.11 30.5738 35.9613 31.5424 36.007C32.5112 36.0528 32.3486 36.7417 32.1137 37.2663C33.0669 36.4295 36.6323 34.667 37.4931 36.4126C38.5127 38.4791 32.392 41.4641 33.9181 41.3119C35.406 41.1635 37.8165 39.9923 38.8457 38.9274L41.6787 19.3893C41.6787 19.3893 38.828 21.1991 20.692 21.1991C2.55577 21.1991 0 19.427 0 19.427L2.41186 37.2606C3.69206 34.4694 6.73209 28.8236 11.524 29.0131C13.7037 29.0994 16.6136 32.3192 14.121 32.4283C13.066 32.4743 12.9589 30.8211 11.7095 30.5783C10.8079 30.4031 9.55278 30.9653 8.74159 31.5745C7.12384 32.7891 3.64448 37.5811 4.10421 39.9702C4.68993 43.016 9.58312 38.9118 10.4111 37.6933C10.9941 36.8349 11.388 34.2918 12.6633 34.5587C13.9387 34.8255 12.552 37.45 11.6276 39.7704C10.5891 42.3759 10.0432 45.1244 8.74159 44.8082C7.43983 44.4923 9.56024 41.1286 9.48348 40.5393C8.25998 41.4053 6.00594 43.5976 3.12226 42.5125L4.62014 53.587C4.62014 53.587 8.60116 56 20.5937 56C32.5861 56 36.7146 53.6247 36.7146 53.6247L38.5745 40.7977C37.0528 41.9344 32.2367 43.953 31.9283 41.6777Z" fill="#5C62EC"/>
</svg>
