<svg width="64" height="72" viewBox="0 0 64 72" fill="none" xmlns="http://www.w3.org/2000/svg">
<path d="M0 0L4.47187 63.0143L31.8094 72L59.1466 63.0143L63.6185 0H0Z" fill="#5C62EC"/>
<path d="M63.6188 0L59.1469 63.0143L31.8096 72V0H63.6188Z" fill="#5C62EC"/>
<path d="M51.6799 19.125H20.4189L21.178 29.6719H50.9208L49.1063 55.2091L31.8094 60.9889L14.5126 55.2091L13.9221 46.6875H22.3596L22.5283 49.0078L31.8096 52.0872L41.0908 49.0078L41.8499 38.1094H13.2893L11.3486 10.6875H52.2705L51.6799 19.125Z" fill="#ECECF1"/>
<path d="M50.9209 29.6719L49.1064 55.2091L31.8096 60.9889V52.0874L41.0908 49.0078L41.8501 38.1094H31.8096V29.6719H50.9209ZM52.2706 10.6875L51.68 19.125H31.8097V10.6875H52.2706Z" fill="#E2E2E7"/>
</svg>
