<svg width="72" height="72" viewBox="0 0 72 72" fill="none" xmlns="http://www.w3.org/2000/svg">
<g clip-path="url(#clip0_39440_108)">
<path d="M0 0H72V72H0V0Z" fill="#5C62EC"/>
<path d="M48.3661 56.2503C49.8163 58.6183 51.7032 60.3588 55.0404 60.3588C57.8438 60.3588 59.6346 58.9576 59.6346 57.0216C59.6346 54.7016 57.7947 53.8799 54.709 52.5302L53.0175 51.8044C48.1352 49.7245 44.8918 47.1187 44.8918 41.6101C44.8918 36.5358 48.7581 32.673 54.8004 32.673C59.1021 32.673 62.1947 34.1701 64.4232 38.0901L59.1547 41.473C57.9947 39.393 56.7432 38.5736 54.8004 38.5736C52.8187 38.5736 51.5626 39.8308 51.5626 41.473C51.5626 43.5028 52.8198 44.3245 55.7226 45.5816L57.414 46.3061C63.1626 48.7713 66.4083 51.2844 66.4083 56.9347C66.4083 63.0262 61.6231 66.3633 55.1968 66.3633C48.9134 66.3633 44.854 63.369 42.8676 59.4445L48.3661 56.2503ZM24.4654 56.8366C25.5283 58.7223 26.4952 60.3166 28.8198 60.3166C31.0426 60.3166 32.4449 59.4468 32.4449 56.0652V33.0594H39.2107V56.1565C39.2107 63.1622 35.1033 66.3508 29.1078 66.3508C23.6906 66.3508 20.5535 63.5473 18.958 60.1708L24.4654 56.8366Z" fill="black"/>
</g>
<defs>
<clipPath id="clip0_39440_108">
<rect width="72" height="72" fill="white"/>
</clipPath>
</defs>
</svg>
