<svg width="16" height="16" viewBox="0 0 16 16" fill="none" xmlns="http://www.w3.org/2000/svg">
<path d="M11.826 5.32695L13.749 4.74995L11.826 4.17295L11.249 2.24995L10.672 4.17295L8.74902 4.74995L10.672 5.32695L11.249 7.24995L11.826 5.32695Z" fill="#171718"/>
<path d="M12.4999 9.24995C11.6485 9.24953 10.8078 9.06013 10.0384 8.69541C9.2691 8.33069 8.5903 7.79975 8.05103 7.1409C7.51176 6.48204 7.12545 5.7117 6.91999 4.88545C6.71453 4.0592 6.69503 3.19765 6.8629 2.36295C5.84348 2.56864 4.89894 3.04694 4.12982 3.74693C3.36071 4.44691 2.79582 5.34237 2.49531 6.33797C2.1948 7.33356 2.16991 8.39201 2.42329 9.40063C2.67668 10.4093 3.19885 11.3303 3.93421 12.0656C4.66957 12.801 5.59059 13.3232 6.59921 13.5766C7.60783 13.8299 8.66628 13.805 9.66188 13.5045C10.6575 13.204 11.5529 12.6391 12.2529 11.87C12.9529 11.1009 13.4312 10.1564 13.6369 9.13695C13.2626 9.2121 12.8817 9.24995 12.4999 9.24995Z" fill="#171718"/>
<path d="M5.49902 11.25C5.77517 11.25 5.99902 11.0261 5.99902 10.75C5.99902 10.4738 5.77517 10.25 5.49902 10.25C5.22288 10.25 4.99902 10.4738 4.99902 10.75C4.99902 11.0261 5.22288 11.25 5.49902 11.25Z" fill="#171718"/>
<path d="M5.99902 8.99995C6.27517 8.99995 6.49902 8.7761 6.49902 8.49995C6.49902 8.22381 6.27517 7.99995 5.99902 7.99995C5.72288 7.99995 5.49902 8.22381 5.49902 8.49995C5.49902 8.7761 5.72288 8.99995 5.99902 8.99995Z" fill="#171718"/>
<path d="M3.74902 8.74995C4.02517 8.74995 4.24902 8.5261 4.24902 8.24995C4.24902 7.97381 4.02517 7.74995 3.74902 7.74995C3.47288 7.74995 3.24902 7.97381 3.24902 8.24995C3.24902 8.5261 3.47288 8.74995 3.74902 8.74995Z" fill="#171718"/>
<path d="M9.74902 12.25C10.0252 12.25 10.249 12.0261 10.249 11.75C10.249 11.4738 10.0252 11.25 9.74902 11.25C9.47288 11.25 9.24902 11.4738 9.24902 11.75C9.24902 12.0261 9.47288 12.25 9.74902 12.25Z" fill="#171718"/>
<path d="M7.49902 12.75C7.91324 12.75 8.24902 12.4142 8.24902 12C8.24902 11.5857 7.91324 11.25 7.49902 11.25C7.08481 11.25 6.74902 11.5857 6.74902 12C6.74902 12.4142 7.08481 12.75 7.49902 12.75Z" fill="#171718"/>
<path d="M14.249 12.75L14.603 13.75H15.749L14.822 14.5037L15.249 15.75L14.249 15L13.249 15.75L13.676 14.5037L12.749 13.75H13.895L14.249 12.75ZM1.74902 0.249954L2.10302 1.24995H3.24902L2.32202 2.0037L2.74902 3.24995L1.74902 2.49995L0.749023 3.24995L1.17602 2.0037L0.249023 1.24995H1.39502L1.74902 0.249954Z" fill="#171718"/>
<path d="M8.67733 4.98945L10.4716 5.52745L11.0096 7.3217C11.025 7.37323 11.0566 7.41841 11.0998 7.45054C11.1429 7.48266 11.1953 7.50001 11.2491 7.50001C11.3029 7.50001 11.3552 7.48266 11.3984 7.45054C11.4415 7.41841 11.4732 7.37323 11.4886 7.3217L12.0266 5.52745L13.8208 4.98945C13.8724 4.97403 13.9175 4.94239 13.9497 4.89924C13.9818 4.8561 13.9991 4.80374 13.9991 4.74995C13.9991 4.69616 13.9818 4.6438 13.9497 4.60066C13.9175 4.55751 13.8724 4.52588 13.8208 4.51045L12.0266 3.97245L11.4886 2.1782C11.4732 2.12667 11.4415 2.08149 11.3984 2.04937C11.3552 2.01724 11.3029 1.99989 11.2491 1.99989C11.1953 1.99989 11.1429 2.01724 11.0998 2.04937C11.0566 2.08149 11.025 2.12667 11.0096 2.1782L10.4716 3.97245L8.67733 4.51045C8.6258 4.52588 8.58062 4.55751 8.5485 4.60066C8.51637 4.6438 8.49902 4.69616 8.49902 4.74995C8.49902 4.80374 8.51637 4.8561 8.5485 4.89924C8.58062 4.94239 8.6258 4.97403 8.67733 4.98945ZM10.7438 4.41245C10.7835 4.40059 10.8195 4.37908 10.8488 4.34985C10.8781 4.32061 10.8997 4.28457 10.9116 4.24495L11.2491 3.11995L11.5866 4.24495C11.5985 4.28454 11.62 4.32057 11.6492 4.3498C11.6785 4.37903 11.7145 4.40056 11.7541 4.41245L12.8791 4.74995L11.7541 5.08745C11.7145 5.09935 11.6785 5.12087 11.6492 5.1501C11.62 5.17933 11.5985 5.21536 11.5866 5.25495L11.2491 6.37995L10.9116 5.25495C10.8997 5.21536 10.8782 5.17933 10.8489 5.1501C10.8197 5.12087 10.7837 5.09935 10.7441 5.08745L9.61908 4.74995L10.7438 4.41245Z" fill="#171718"/>
<path d="M13.8129 8.95995C13.7837 8.93093 13.7478 8.90953 13.7084 8.89763C13.669 8.88573 13.6272 8.88369 13.5869 8.8917C12.6978 9.07065 11.7783 9.02705 10.9101 8.76478C10.042 8.50251 9.2521 8.02971 8.61081 7.38845C7.96952 6.74718 7.49669 5.95734 7.23439 5.08919C6.97209 4.22105 6.92845 3.30153 7.10736 2.41245C7.11545 2.37208 7.11345 2.33034 7.10152 2.29093C7.0896 2.25152 7.06813 2.21566 7.03901 2.18655C7.0099 2.15744 6.97404 2.13596 6.93464 2.12404C6.89523 2.11212 6.85348 2.11011 6.81311 2.1182C5.7493 2.33273 4.76359 2.83177 3.96093 3.56215C3.15828 4.29254 2.56874 5.22694 2.25509 6.26586C1.94144 7.30477 1.91542 8.4093 2.17981 9.46183C2.44419 10.5144 2.98908 11.4755 3.75646 12.2429C4.52383 13.0102 5.48495 13.5551 6.53748 13.8195C7.59001 14.0839 8.69454 14.0579 9.73345 13.7442C10.7724 13.4306 11.7068 12.841 12.4372 12.0384C13.1675 11.2357 13.6666 10.25 13.8811 9.1862C13.8892 9.14586 13.8872 9.10415 13.8753 9.06477C13.8634 9.02539 13.8419 8.98956 13.8129 8.96045V8.95995ZM7.99911 13.5C6.6667 13.4998 5.37964 13.016 4.37703 12.1385C3.37441 11.2609 2.72441 10.0493 2.54778 8.72865C2.37114 7.408 2.67988 6.06813 3.41663 4.95795C4.15339 3.84776 5.26808 3.04275 6.55361 2.69245C6.42934 3.60848 6.51838 4.54083 6.81379 5.41677C7.1092 6.29271 7.60299 7.08856 8.25664 7.74223C8.91029 8.39591 9.70612 8.88972 10.5821 9.18517C11.458 9.48061 12.3903 9.56969 13.3064 9.44545C12.987 10.6088 12.295 11.6352 11.3364 12.3676C10.3778 13.0999 9.20545 13.4977 7.99911 13.5Z" fill="#171718"/>
<path d="M5.49951 9.99995C5.35117 9.99995 5.20617 10.0439 5.08283 10.1263C4.9595 10.2088 4.86337 10.3259 4.8066 10.4629C4.74983 10.6 4.73498 10.7508 4.76392 10.8963C4.79286 11.0418 4.86429 11.1754 4.96918 11.2803C5.07407 11.3852 5.20771 11.4566 5.35319 11.4855C5.49868 11.5145 5.64948 11.4996 5.78652 11.4429C5.92357 11.3861 6.0407 11.29 6.12311 11.1666C6.20552 11.0433 6.24951 10.8983 6.24951 10.7499C6.24931 10.5511 6.17023 10.3604 6.02962 10.2198C5.88901 10.0792 5.69836 10.0001 5.49951 9.99995ZM5.49951 10.9999C5.45006 10.9999 5.40173 10.9853 5.36062 10.9578C5.31951 10.9303 5.28746 10.8913 5.26854 10.8456C5.24962 10.7999 5.24467 10.7497 5.25431 10.7012C5.26396 10.6527 5.28777 10.6081 5.32273 10.5732C5.3577 10.5382 5.40224 10.5144 5.45074 10.5048C5.49923 10.4951 5.5495 10.5001 5.59518 10.519C5.64086 10.5379 5.67991 10.5699 5.70738 10.6111C5.73485 10.6522 5.74951 10.7005 5.74951 10.7499C5.74951 10.8163 5.72317 10.8798 5.67629 10.9267C5.6294 10.9736 5.56581 10.9999 5.49951 10.9999ZM5.99951 9.24995C6.19836 9.24975 6.38901 9.17067 6.52962 9.03006C6.67023 8.88945 6.74931 8.6988 6.74951 8.49995C6.74951 8.43364 6.72317 8.37006 6.67629 8.32317C6.6294 8.27629 6.56581 8.24995 6.49951 8.24995C6.43321 8.24995 6.36962 8.27629 6.32273 8.32317C6.27585 8.37006 6.24951 8.43364 6.24951 8.49995C6.24951 8.54939 6.23485 8.59773 6.20738 8.63884C6.17991 8.67995 6.14086 8.712 6.09518 8.73092C6.0495 8.74984 5.99923 8.75479 5.95074 8.74514C5.90224 8.7355 5.8577 8.71169 5.82273 8.67673C5.78777 8.64176 5.76396 8.59722 5.75431 8.54872C5.74467 8.50023 5.74962 8.44996 5.76854 8.40428C5.78746 8.3586 5.81951 8.31955 5.86062 8.29208C5.90173 8.26461 5.95006 8.24995 5.99951 8.24995C6.06581 8.24995 6.1294 8.22361 6.17629 8.17673C6.22317 8.12984 6.24951 8.06625 6.24951 7.99995C6.24951 7.93364 6.22317 7.87006 6.17629 7.82317C6.1294 7.77629 6.06581 7.74995 5.99951 7.74995C5.8006 7.74995 5.60983 7.82897 5.46918 7.96962C5.32853 8.11027 5.24951 8.30104 5.24951 8.49995C5.24951 8.69886 5.32853 8.88963 5.46918 9.03028C5.60983 9.17093 5.8006 9.24995 5.99951 9.24995ZM3.74951 7.49995C3.5506 7.49995 3.35983 7.57897 3.21918 7.71962C3.07853 7.86027 2.99951 8.05104 2.99951 8.24995C2.99951 8.44886 3.07853 8.63963 3.21918 8.78028C3.35983 8.92093 3.5506 8.99995 3.74951 8.99995C3.81581 8.99995 3.8794 8.97361 3.92629 8.92673C3.97317 8.87984 3.99951 8.81625 3.99951 8.74995C3.99951 8.68364 3.97317 8.62006 3.92629 8.57317C3.8794 8.52629 3.81581 8.49995 3.74951 8.49995C3.70006 8.49995 3.65173 8.48529 3.61062 8.45782C3.56951 8.43035 3.53746 8.3913 3.51854 8.34562C3.49962 8.29994 3.49467 8.24967 3.50431 8.20118C3.51396 8.15268 3.53777 8.10813 3.57273 8.07317C3.6077 8.03821 3.65224 8.0144 3.70074 8.00475C3.74923 7.99511 3.7995 8.00006 3.84518 8.01898C3.89086 8.0379 3.92991 8.06994 3.95738 8.11106C3.98485 8.15217 3.99951 8.2005 3.99951 8.24995C3.99951 8.31625 4.02585 8.37984 4.07273 8.42673C4.11962 8.47361 4.18321 8.49995 4.24951 8.49995C4.31581 8.49995 4.3794 8.47361 4.42629 8.42673C4.47317 8.37984 4.49951 8.31625 4.49951 8.24995C4.49931 8.0511 4.42023 7.86045 4.27962 7.71984C4.13901 7.57923 3.94836 7.50015 3.74951 7.49995ZM10.2495 11.4999C10.1832 11.4999 10.1196 11.5263 10.0727 11.5732C10.0258 11.6201 9.99951 11.6836 9.99951 11.7499C9.99951 11.7994 9.98485 11.8477 9.95738 11.8888C9.92991 11.93 9.89086 11.962 9.84518 11.9809C9.7995 11.9998 9.74923 12.0048 9.70074 11.9951C9.65224 11.9855 9.6077 11.9617 9.57273 11.9267C9.53777 11.8918 9.51396 11.8472 9.50431 11.7987C9.49467 11.7502 9.49962 11.7 9.51854 11.6543C9.53746 11.6086 9.56951 11.5696 9.61062 11.5421C9.65173 11.5146 9.70007 11.4999 9.74951 11.4999C9.81581 11.4999 9.8794 11.4736 9.92629 11.4267C9.97317 11.3798 9.99951 11.3163 9.99951 11.2499C9.99951 11.1836 9.97317 11.1201 9.92629 11.0732C9.8794 11.0263 9.81581 10.9999 9.74951 10.9999C9.60117 10.9999 9.45617 11.0439 9.33283 11.1263C9.2095 11.2088 9.11337 11.3259 9.0566 11.4629C8.99984 11.6 8.98498 11.7508 9.01392 11.8963C9.04286 12.0418 9.11429 12.1754 9.21918 12.2803C9.32407 12.3852 9.45771 12.4566 9.60319 12.4855C9.74868 12.5145 9.89948 12.4996 10.0365 12.4429C10.1736 12.3861 10.2907 12.29 10.3731 12.1666C10.4555 12.0433 10.4995 11.8983 10.4995 11.7499C10.4995 11.6836 10.4732 11.6201 10.4263 11.5732C10.3794 11.5263 10.3158 11.4999 10.2495 11.4999ZM8.24951 11.7499C8.18321 11.7499 8.11962 11.7763 8.07273 11.8232C8.02585 11.8701 7.99951 11.9336 7.99951 11.9999C7.99951 12.0988 7.97019 12.1955 7.91525 12.2777C7.8603 12.36 7.78222 12.424 7.69085 12.4619C7.59949 12.4997 7.49896 12.5096 7.40197 12.4903C7.30497 12.471 7.21588 12.4234 7.14596 12.3535C7.07603 12.2836 7.02841 12.1945 7.00912 12.0975C6.98982 12.0005 6.99973 11.9 7.03757 11.8086C7.07541 11.7172 7.1395 11.6392 7.22172 11.5842C7.30395 11.5293 7.40062 11.4999 7.49951 11.4999C7.56581 11.4999 7.6294 11.4736 7.67629 11.4267C7.72317 11.3798 7.74951 11.3163 7.74951 11.2499C7.74951 11.1836 7.72317 11.1201 7.67629 11.0732C7.6294 11.0263 7.56581 10.9999 7.49951 10.9999C7.30173 10.9999 7.10839 11.0586 6.94394 11.1685C6.77949 11.2784 6.65132 11.4345 6.57563 11.6173C6.49994 11.8 6.48014 12.0011 6.51872 12.195C6.55731 12.389 6.65255 12.5672 6.7924 12.7071C6.93226 12.8469 7.11044 12.9421 7.30442 12.9807C7.4984 13.0193 7.69947 12.9995 7.88219 12.9238C8.06492 12.8481 8.2211 12.72 8.33098 12.5555C8.44086 12.3911 8.49951 12.1977 8.49951 11.9999C8.49951 11.9336 8.47317 11.8701 8.42629 11.8232C8.3794 11.7763 8.31581 11.7499 8.24951 11.7499ZM15.985 13.6659C15.9677 13.6174 15.9357 13.5753 15.8936 13.5456C15.8514 13.5159 15.8011 13.4999 15.7495 13.4999H14.7803L14.4853 12.6664C14.468 12.6178 14.4361 12.5756 14.3939 12.5458C14.3517 12.516 14.3013 12.5 14.2496 12.5C14.198 12.5 14.1476 12.516 14.1054 12.5458C14.0632 12.5756 14.0313 12.6178 14.014 12.6664L13.7188 13.4999H12.7495C12.6979 13.4999 12.6475 13.5159 12.6053 13.5457C12.5631 13.5755 12.5312 13.6176 12.5139 13.6663C12.4966 13.7149 12.4948 13.7677 12.5087 13.8175C12.5227 13.8672 12.5517 13.9114 12.5918 13.9439L13.3835 14.5879L13.013 15.6689C12.9957 15.7195 12.995 15.7743 13.0112 15.8253C13.0273 15.8762 13.0593 15.9207 13.1025 15.9521C13.1458 15.9836 13.1979 16.0003 13.2514 15.9999C13.3048 15.9995 13.3567 15.982 13.3995 15.9499L14.2495 15.3124L15.0995 15.9499C15.1423 15.982 15.1942 15.9995 15.2476 15.9999C15.3011 16.0003 15.3533 15.9836 15.3965 15.9521C15.4397 15.9207 15.4718 15.8762 15.4879 15.8253C15.504 15.7743 15.5033 15.7195 15.486 15.6689L15.1155 14.5879L15.9073 13.9439C15.9473 13.9114 15.9762 13.8672 15.9901 13.8175C16.0041 13.7678 16.0023 13.7151 15.985 13.6664V13.6659ZM14.586 14.5847L14.7495 15.0624L14.3995 14.7999C14.3563 14.7674 14.3036 14.7498 14.2495 14.7498C14.1954 14.7498 14.1428 14.7674 14.0995 14.7999L13.7495 15.0624L13.9133 14.5849C13.9298 14.5366 13.9312 14.4842 13.9171 14.4351C13.903 14.3859 13.8742 14.3422 13.8345 14.3099L13.453 13.9999H13.8955C13.9472 14 13.9976 13.9839 14.0398 13.9541C14.082 13.9242 14.1139 13.882 14.131 13.8332L14.2495 13.4992L14.368 13.8332C14.3852 13.8819 14.4171 13.9241 14.4593 13.9539C14.5014 13.9837 14.5518 13.9997 14.6035 13.9997H15.046L14.6648 14.3097C14.6251 14.342 14.5962 14.3856 14.5822 14.4348C14.5681 14.484 14.5694 14.5363 14.586 14.5847ZM2.74951 3.49995C2.7893 3.49995 2.82851 3.49045 2.86388 3.47225C2.89926 3.45404 2.92978 3.42766 2.95291 3.39529C2.97604 3.36292 2.99111 3.32549 2.99686 3.28613C3.00262 3.24676 2.9989 3.20659 2.98601 3.16895L2.61551 2.08795L3.40726 1.4437C3.44724 1.4111 3.47615 1.36693 3.49004 1.31725C3.50393 1.26757 3.50211 1.21481 3.48483 1.16621C3.46755 1.1176 3.43566 1.07554 3.39353 1.04577C3.3514 1.016 3.30109 0.999998 3.24951 0.999948H2.28001L1.98526 0.166448C1.968 0.11776 1.93607 0.0756149 1.89388 0.0458091C1.85169 0.0160032 1.80129 0 1.74964 0C1.69798 0 1.64759 0.0160032 1.60539 0.0458091C1.5632 0.0756149 1.53128 0.11776 1.51401 0.166448L1.21876 0.999948H0.24951C0.197948 1.00005 0.147677 1.01609 0.105587 1.04588C0.0634974 1.07566 0.0316469 1.11773 0.0143998 1.16633C-0.00284722 1.21492 -0.00464706 1.26766 0.00924692 1.31731C0.0231409 1.36697 0.052049 1.41111 0.0920103 1.4437L0.88351 2.08795L0.51301 3.16895C0.495694 3.21952 0.495043 3.27431 0.511153 3.32528C0.527262 3.37624 0.559283 3.42071 0.602518 3.45214C0.645752 3.48357 0.697923 3.50032 0.751375 3.49993C0.804827 3.49953 0.856745 3.48202 0.89951 3.44995L1.74951 2.81245L2.59951 3.44995C2.64274 3.48249 2.6954 3.50004 2.74951 3.49995ZM2.08601 2.08495L2.24951 2.56245L1.89951 2.3002C1.85627 2.26767 1.80362 2.25007 1.74951 2.25007C1.6954 2.25007 1.64275 2.26767 1.59951 2.3002L1.24951 2.56245L1.41301 2.0847C1.42959 2.03631 1.43094 1.984 1.41685 1.93482C1.40277 1.88565 1.37394 1.84197 1.33426 1.8097L0.95326 1.49995H1.39551C1.44717 1.49999 1.49757 1.484 1.53976 1.45417C1.58194 1.42435 1.61382 1.38217 1.63101 1.33345L1.74951 0.999198L1.86801 1.33345C1.8852 1.38217 1.91708 1.42435 1.95926 1.45417C2.00145 1.484 2.05185 1.49999 2.10351 1.49995H2.54601L2.16451 1.80995C2.12483 1.84222 2.096 1.8859 2.08192 1.93507C2.06784 1.98425 2.06943 2.03656 2.08601 2.08495Z" fill="#171718"/>
</svg>
